<svg width="485" height="485" viewBox="117.5 74.5 250 250" fill="none" xmlns="http://www.w3.org/2000/svg">
<rect width="485" height="485" fill="white"/>
<path d="M222.721 178C238.462 178 247.287 185.375 247.585 196.23L233.99 196.644C233.632 190.626 228.236 186.673 222.721 186.791C215.148 186.939 209.544 191.924 209.544 199.829C209.544 207.735 215.148 212.632 222.721 212.632C228.236 212.632 233.513 208.857 234.109 202.839L247.704 203.134C247.346 214.166 237.985 221.659 222.721 221.659C207.456 221.659 195.531 213.104 195.531 199.829C195.532 186.496 206.98 178 222.721 178ZM290.001 179.29V220.589H254.225V179.29H290.001Z" fill="#090B0B"/>
</svg>
